<?xml version="1.0" encoding="UTF-8"?>
<svg id="Layer_1" data-name="Layer 1" xmlns="http://www.w3.org/2000/svg" viewBox="0 0 578.43 409.23">
  <defs>
    <style>
      .cls-1 {
        font-family: Freesentation-9Black, Freesentation;
        font-size: 182.74px;
        font-weight: 800;
      }

      .cls-1, .cls-2 {
        fill: #010101;
      }

      .cls-2 {
        stroke-width: 0px;
      }
    </style>
  </defs>
  <g>
    <path class="cls-2" d="M262.13,5.53c0,4.54-4.13,11.09-12.37,19.64-8.25,8.56-18.32,16.76-30.2,24.61-1.54,5.39-3.8,15.17-6.8,29.36-4.79,22.22-9.19,37.98-13.21,47.3-4.02,9.31-10.64,18.79-19.88,28.43-26.67,27.89-56.55,41.84-89.63,41.84-9.49,0-17.87-1.75-25.13-5.25-4.02,8.71-6.03,16.28-6.03,22.72,0,8.14,2.46,15.62,7.37,22.44.51.57.77,1.23.77,1.99s-.43,1.13-1.28,1.13c-1.98,0-4.11-2.94-6.39-8.8-2.28-5.87-3.42-11.36-3.42-16.48,0-7.39,2.18-15.53,6.54-24.43-17.87-10.21-26.8-27.75-26.8-52.61,0-15.98,4.27-31.86,12.82-47.65,8.55-15.79,20.56-30.02,36.03-42.69,19.75-16.07,39.28-24.11,58.6-24.11,10.52,0,18.87,3.26,25.07,9.79,6.2,6.52,9.3,15.36,9.3,26.52,0,5.96-.77,12.15-2.31,18.58,12.57-9.26,23.68-17.11,33.34-23.54,6.16-14.84,13.89-27.61,23.21-38.29,9.32-10.68,17.44-16.03,24.36-16.03,4.02,0,6.03,1.84,6.03,5.53ZM175.19,58.71c0-9.93-2.84-17.92-8.53-23.97-5.69-6.05-13.19-9.08-22.5-9.08-23,0-45.25,13.24-66.75,39.71-21.5,26.47-32.25,53.89-32.25,82.25,0,18.63,6.2,31.86,18.59,39.71,5.81-10.59,14.15-22.17,25.01-34.75-5.64-5.39-8.46-11.82-8.46-19.29,0-5.67,1.62-10.52,4.87-14.54,3.25-4.02,7.18-6.03,11.8-6.03,5.73,0,8.59,2.93,8.59,8.79,0,3.03-1.07,5.65-3.21,7.87-2.14,2.22-4.66,3.33-7.57,3.33-4.19,0-6.28-2.22-6.28-6.67,0-1.42.43-2.93,1.28-4.54.34-1.23.51-1.94.51-2.13,0-.57-.26-.85-.77-.85-1.45,0-2.95,1.7-4.49,5.11-1.54,3.4-2.31,6.76-2.31,10.07,0,6.24,2.61,11.82,7.82,16.73,17.18-20.04,44.32-43.44,81.43-70.2,2.14-8.32,3.21-15.5,3.21-21.56ZM206.99,58.14c-10,7-20.95,14.94-32.83,23.83-5.64,20.04-15.54,37.63-29.69,52.76-14.15,15.13-27.72,22.69-40.71,22.69-3.93,0-8.25-1.13-12.95-3.4-9.66,11.06-17.87,22.69-24.62,34.89,7.01,3.5,14.96,5.25,23.85,5.25,16.07,0,31.63-5.03,46.68-15.1,15.05-10.07,27.95-24.04,38.73-41.91,5.04-8.32,9.02-16.05,11.93-23.19,2.91-7.14,7.61-20.59,14.11-40.35,1.54-4.91,3.38-10.07,5.51-15.46ZM170.7,84.24l-8.46,6.38c-32.23,24.58-55.48,45.05-69.76,61.41,3.59,2.08,7.44,3.12,11.54,3.12,11.97,0,24.49-6.95,37.57-20.85,13.08-13.9,22.78-30.58,29.11-50.06ZM259.7,5.81c0-2.27-1.2-3.4-3.59-3.4-5.73,0-12.12,4.37-19.17,13.12-7.05,8.75-12.5,18.98-16.35,30.7,11.28-7.66,20.62-15.32,28.02-22.97,7.39-7.66,11.09-13.47,11.09-17.44Z"/>
    <path class="cls-2" d="M353.24,146.43c-.09.28-.51,1.04-1.28,2.27l-5.52,8.38c-16.09,24.71-27.99,37.07-35.69,37.07-4.02,0-7.32-1.66-9.89-4.96-2.57-3.31-3.85-7.56-3.85-12.76s1.62-11.01,4.87-17.16c.6-1.13,3.72-6.19,9.36-15.17,7.18-11.35,10.77-18.77,10.77-22.27,0-3.88-1.75-5.81-5.26-5.81-11.28,0-30.65,25.62-58.09,76.86-1.71-.38-4.06-.57-7.05-.57-3.51,0-6.5.19-8.98.57l18.21-31.91c11.88-20.99,17.82-33.85,17.82-38.57,0-4.25-1.58-6.38-4.74-6.38-4.7,0-12.4,7.47-23.08,22.41-10.69,14.94-21.29,33.09-31.8,54.46-1.97-.38-4.49-.57-7.57-.57-3.33,0-6.24.19-8.72.57l18.34-31.91c12.65-21.93,18.98-35.5,18.98-40.7,0-2.84-.99-4.25-2.96-4.25-4.2,0-12.89,10.14-26.09,30.42-.86,1.32-1.54,1.98-2.06,1.98-.34-.09-.51-.38-.51-.85,0-.85,3.94-6.75,11.82-17.69,7.71-10.66,13.66-15.99,17.85-15.99,2.74,0,5.09,1.44,7.06,4.33,1.97,2.88,2.96,6.31,2.96,10.28,0,5.48-2.52,13.1-7.57,22.83,15.39-24.96,26.84-37.44,34.37-37.44,3.59,0,6.54,1.61,8.85,4.82,2.31,3.22,3.46,7.23,3.46,12.05,0,5.39-2.27,12.24-6.8,20.56,16.24-24.96,28.42-37.44,36.55-37.44,3.67,0,6.77,1.75,9.3,5.25,2.52,3.5,3.78,7.75,3.78,12.76,0,5.86-2.1,12.72-6.28,20.56-.09.1-3.76,6.15-11.03,18.15-4.19,6.81-6.28,12.01-6.28,15.6,0,3.88,1.76,5.81,5.27,5.81,6.68,0,17.72-11.93,33.13-35.79l3.98-6.11,2.31-3.13c.43-.94.86-1.42,1.28-1.42.51,0,.77.28.77.85Z"/>
    <path class="cls-2" d="M443.65,146.43c0,1.99-6.25,11.17-18.74,27.55-10.1,13.45-18.06,20.17-23.88,20.17-3.94,0-7.15-1.63-9.63-4.89-2.48-3.26-3.72-7.35-3.72-12.27s1.37-10.64,4.1-16.59c-8.55,13.24-15.09,22.17-19.62,26.8-4.53,4.63-8.93,6.95-13.21,6.95-4.53,0-8.34-2.15-11.41-6.45-3.08-4.3-4.62-9.71-4.62-16.24,0-18.15,11.58-34.22,34.75-48.22,10.17-6.24,18.38-9.36,24.62-9.36,5.3,0,7.95,2.84,7.95,8.51,0,1.61-.34,3.74-1.03,6.38l6.54-13.76c2.56.66,4.83.99,6.8.99,2.31,0,5.3-.33,8.98-.99l-22.7,41.55c-7.87,14.56-11.8,24.16-11.8,28.79s1.67,6.67,5.01,6.67,8.9-4.33,16.44-13c7.53-8.66,15.2-19.34,22.99-32.03.51-.94.98-1.42,1.41-1.42.51,0,.77.28.77.85ZM408.32,122.96c0-4.63-1.92-6.95-5.77-6.95-7.87,0-18.19,8.51-30.97,25.53-12.78,17.02-19.17,30.77-19.17,41.27,0,6.15,2.48,9.22,7.44,9.22,5.9,0,16.11-10.82,30.65-32.48,11.88-17.77,17.82-29.97,17.82-36.59Z"/>
    <path class="cls-2" d="M517,146.43c0,.76-2.57,4.22-7.71,10.39-6.51,7.97-12.63,11.95-18.37,11.95-6.51,0-9.76-4.16-9.76-12.48,0-2.65.51-6,1.54-10.07-5.39,5.2-9.77,10.35-13.14,15.46-3.38,5.11-9.21,15.51-17.5,31.2-4.53-.38-7.18-.57-7.95-.57-.34,0-2.95.19-7.82.57l21.03-37.72c10.52-18.91,15.77-30.63,15.77-35.17,0-2.65-.99-3.97-2.96-3.97-4.8,0-13.49,10.19-26.09,30.56-.77,1.33-1.46,1.99-2.06,1.99-.34-.09-.51-.38-.51-.85.08-.47.26-.85.51-1.14l2.31-3.55c13.19-19.42,22.13-29.13,26.84-29.13,6.85,0,10.27,4.87,10.27,14.61,0,7.28-3.51,16.92-10.52,28.93,4.44-5.67,8.68-10.3,12.7-13.9,3.25-8.41,7.29-15.46,12.12-21.13,4.83-5.67,9.17-8.51,13.02-8.51,2.65,0,3.98,1.28,3.98,3.83,0,4.54-5.94,11.02-17.82,19.43-1.88,1.33-4.7,3.26-8.46,5.81l-1.54,1.42c-1.2,4.35-1.8,7.94-1.8,10.78,0,7.94,2.7,11.91,8.09,11.91,6.68,0,13.96-6.12,21.84-18.36,1.71-2.09,2.78-3.13,3.21-3.13.51,0,.77.28.77.85Z"/>
    <path class="cls-2" d="M564.12,113.88l-1.03,2.13h-16.8l-28.6,54.03c-3.51,6.52-5.26,11.72-5.26,15.6,0,4.25,2.01,6.38,6.03,6.38,7.79,0,20.93-15.01,39.42-45.03.6-.94,1.11-1.42,1.54-1.42.51,0,.77.28.77.85-.09.28-.51,1.04-1.28,2.27l-5.52,8.38c-16.09,24.71-28.2,37.07-36.33,37.07-4.02,0-7.38-1.61-10.08-4.82-2.7-3.21-4.04-7.23-4.04-12.05,0-5.67,2.26-12.76,6.8-21.27l21.54-39.99h-13.08l1.28-2.13h12.82l15-27.51c2.56.76,5,1.13,7.31,1.13s4.87-.38,7.44-1.13l-14.75,27.51h16.8Z"/>
  </g>
  <text class="cls-1" transform="translate(0 369.39) scale(.95 1)"><tspan x="0" y="0">URBAN</tspan></text>
</svg>