<?xml version="1.0" encoding="UTF-8"?>
<svg id="Layer_1" data-name="Layer 1" xmlns="http://www.w3.org/2000/svg" viewBox="0 0 1102.71 771.72">
  <defs>
    <style>
      .cls-1 {
        stroke-width: 0px;
      }

      .cls-1, .cls-2 {
        fill: #010101;
      }

      .cls-2 {
        font-family: Freesentation-9Black, Freesentation;
        font-size: 348.36px;
        font-weight: 800;
      }
    </style>
  </defs>
  <g>
    <path class="cls-1" d="M503.85,10.32c0,8.47-7.7,20.69-23.1,36.66-15.4,15.97-34.19,31.28-56.37,45.93-2.87,10.06-7.1,28.32-12.69,54.79-8.94,41.47-17.15,70.9-24.65,88.28-7.5,17.38-19.87,35.07-37.1,53.07-49.78,52.06-105.55,78.09-167.3,78.09-17.71,0-33.35-3.27-46.91-9.79-7.5,16.26-11.25,30.39-11.25,42.41,0,15.2,4.58,29.16,13.76,41.89.96,1.06,1.44,2.3,1.44,3.71s-.8,2.12-2.39,2.12c-3.69,0-7.67-5.48-11.93-16.43-4.26-10.96-6.38-21.21-6.38-30.75,0-13.78,4.07-28.98,12.21-45.59-33.35-19.06-50.02-51.79-50.02-98.2,0-29.82,7.98-59.47,23.93-88.94,15.95-29.47,38.37-56.03,67.26-79.67,36.86-30,73.32-45,109.38-45,19.63,0,35.22,6.09,46.79,18.27,11.57,12.18,17.35,28.68,17.35,49.5,0,11.12-1.44,22.68-4.31,34.68,23.46-17.29,44.2-31.94,62.23-43.94,11.49-27.7,25.93-51.53,43.32-71.47C464.52,9.97,479.68,0,492.61,0c7.5,0,11.25,3.44,11.25,10.32ZM341.58,109.59c0-18.53-5.31-33.44-15.92-44.73-10.61-11.29-24.62-16.94-42.01-16.94-42.93,0-84.45,24.71-124.58,74.12-40.13,49.41-60.2,100.59-60.2,153.53,0,34.77,11.57,59.47,34.71,74.12,10.85-19.76,26.41-41.38,46.67-64.85-10.53-10.06-15.8-22.06-15.8-36,0-10.59,3.03-19.63,9.1-27.13,6.06-7.5,13.4-11.25,22.02-11.25,10.69,0,16.04,5.47,16.04,16.41,0,5.65-2,10.55-5.98,14.69-3.99,4.15-8.7,6.22-14.12,6.22-7.82,0-11.73-4.14-11.73-12.44,0-2.65.8-5.47,2.39-8.47.64-2.29.96-3.62.96-3.97,0-1.06-.48-1.59-1.44-1.59-2.72,0-5.51,3.18-8.38,9.53-2.87,6.35-4.31,12.62-4.31,18.79,0,11.65,4.87,22.06,14.6,31.23,32.07-37.41,82.73-81.09,151.99-131.03,3.99-15.53,5.98-28.94,5.98-40.23ZM400.94,108.53c-18.67,13.06-39.1,27.88-61.27,44.47-10.53,37.41-29,70.24-55.41,98.47-26.41,28.24-51.74,42.35-75.99,42.35-7.34,0-15.4-2.12-24.17-6.35-18.03,20.65-33.35,42.35-45.95,65.12,13.08,6.53,27.92,9.79,44.52,9.79,30,0,59.04-9.4,87.12-28.19,28.08-18.79,52.18-44.87,72.28-78.22,9.41-15.53,16.83-29.95,22.26-43.28,5.42-13.32,14.2-38.42,26.33-75.31,2.87-9.17,6.3-18.79,10.29-28.85ZM333.2,157.23l-15.8,11.91c-60.16,45.88-103.56,84.09-130.2,114.62,6.7,3.88,13.88,5.82,21.54,5.82,22.34,0,45.72-12.97,70.13-38.91,24.41-25.94,42.52-57.08,54.33-93.44ZM499.31,10.85c0-4.24-2.24-6.35-6.7-6.35-10.69,0-22.62,8.16-35.78,24.48-13.16,16.32-23.34,35.43-30.52,57.31,21.06-14.29,38.49-28.59,52.3-42.88,13.8-14.29,20.7-25.15,20.7-32.56Z"/>
    <path class="cls-1" d="M673.91,273.3c-.16.53-.96,1.94-2.39,4.24l-10.3,15.64c-30.03,46.13-52.24,69.19-66.62,69.19-7.51,0-13.66-3.09-18.45-9.26-4.79-6.17-7.19-14.12-7.19-23.82s3.03-20.56,9.1-32.03c1.11-2.12,6.94-11.56,17.47-28.32,13.4-21.18,20.11-35.03,20.11-41.56,0-7.23-3.27-10.85-9.81-10.85-21.06,0-57.2,47.82-108.42,143.47-3.19-.71-7.58-1.06-13.16-1.06-6.54,0-12.13.35-16.75,1.06l33.99-59.56c22.18-39.18,33.27-63.17,33.27-72,0-7.94-2.95-11.91-8.86-11.91-8.78,0-23.14,13.94-43.08,41.82-19.95,27.88-39.73,61.77-59.36,101.64-3.67-.71-8.38-1.06-14.12-1.06-6.22,0-11.65.35-16.28,1.06l34.23-59.56c23.61-40.94,35.42-66.26,35.42-75.97,0-5.29-1.84-7.94-5.52-7.94-7.84,0-24.07,18.93-48.69,56.78-1.6,2.47-2.88,3.7-3.84,3.7-.64-.17-.96-.7-.96-1.59,0-1.58,7.35-12.59,22.05-33.02,14.38-19.9,25.49-29.85,33.33-29.85,5.11,0,9.51,2.69,13.18,8.07,3.68,5.38,5.52,11.78,5.52,19.19,0,10.24-4.71,24.44-14.12,42.62,28.72-46.59,50.1-69.88,64.14-69.88,6.7,0,12.21,3,16.51,9,4.31,6,6.46,13.5,6.46,22.5,0,10.06-4.23,22.86-12.69,38.38,30.31-46.59,53.05-69.88,68.21-69.88,6.86,0,12.64,3.27,17.35,9.79,4.7,6.53,7.06,14.47,7.06,23.82,0,10.94-3.91,23.74-11.73,38.38-.16.18-7.02,11.47-20.58,33.88-7.82,12.71-11.73,22.41-11.73,29.12,0,7.24,3.28,10.85,9.83,10.85,12.46,0,33.07-22.27,61.84-66.81l7.43-11.4,4.32-5.84c.8-1.76,1.6-2.65,2.4-2.65.96,0,1.44.53,1.44,1.59Z"/>
    <path class="cls-1" d="M842.65,273.3c0,3.71-11.66,20.85-34.98,51.43-18.85,25.1-33.71,37.65-44.57,37.65-7.35,0-13.34-3.04-17.97-9.13-4.63-6.09-6.95-13.72-6.95-22.9s2.55-19.85,7.66-30.97c-15.96,24.71-28.16,41.38-36.62,50.03-8.46,8.64-16.68,12.97-24.65,12.97-8.46,0-15.56-4.02-21.3-12.04-5.74-8.03-8.62-18.13-8.62-30.31,0-33.88,21.62-63.88,64.86-90,18.99-11.65,34.31-17.47,45.95-17.47,9.89,0,14.84,5.29,14.84,15.88,0,3-.64,6.97-1.91,11.91l12.21-25.68c4.79,1.24,9.01,1.85,12.69,1.85,4.31,0,9.89-.62,16.75-1.85l-42.36,77.56c-14.68,27.18-22.02,45.09-22.02,53.73s3.12,12.44,9.35,12.44,16.62-8.09,30.68-24.26c14.06-16.17,28.36-36.1,42.9-59.79.96-1.76,1.84-2.65,2.64-2.65.96,0,1.44.53,1.44,1.59ZM776.71,229.5c0-8.64-3.59-12.97-10.77-12.97-14.68,0-33.95,15.88-57.8,47.65-23.86,31.76-35.78,57.44-35.78,77.03,0,11.47,4.63,17.21,13.88,17.21,11.01,0,30.08-20.2,57.2-60.62,22.18-33.17,33.27-55.94,33.27-68.29Z"/>
    <path class="cls-1" d="M979.56,273.3c0,1.42-4.79,7.88-14.38,19.38-12.15,14.87-23.58,22.31-34.29,22.31-12.15,0-18.22-7.76-18.22-23.29,0-4.94.96-11.2,2.87-18.79-10.05,9.71-18.23,19.32-24.53,28.85-6.31,9.53-17.2,28.94-32.67,58.23-8.46-.71-13.4-1.06-14.84-1.06-.64,0-5.51.35-14.6,1.06l39.25-70.41c19.63-35.29,29.44-57.18,29.44-65.65,0-4.94-1.84-7.41-5.52-7.41-8.95,0-25.18,19.01-48.69,57.04-1.44,2.47-2.72,3.71-3.84,3.71-.64-.17-.96-.7-.96-1.59.16-.88.48-1.59.96-2.12l4.32-6.63c24.61-36.25,41.31-54.38,50.11-54.38,12.78,0,19.18,9.09,19.18,27.26,0,13.59-6.54,31.59-19.63,54,8.29-10.59,16.19-19.23,23.7-25.94,6.06-15.7,13.6-28.85,22.62-39.44,9.01-10.59,17.11-15.88,24.29-15.88,4.94,0,7.42,2.38,7.42,7.15,0,8.47-11.09,20.56-33.27,36.26-3.51,2.47-8.78,6.09-15.8,10.85l-2.87,2.65c-2.24,8.12-3.35,14.82-3.35,20.12,0,14.82,5.03,22.23,15.11,22.23,12.47,0,26.06-11.42,40.77-34.26,3.19-3.89,5.19-5.84,5.99-5.84.96,0,1.44.53,1.44,1.59Z"/>
    <path class="cls-1" d="M1067.52,212.55l-1.91,3.97h-31.35l-53.37,100.85c-6.54,12.18-9.81,21.88-9.81,29.12,0,7.94,3.75,11.91,11.26,11.91,14.54,0,39.07-28.01,73.58-84.04,1.12-1.76,2.08-2.65,2.88-2.65.96,0,1.44.53,1.44,1.59-.16.53-.96,1.94-2.39,4.24l-10.3,15.64c-30.03,46.13-52.64,69.19-67.81,69.19-7.51,0-13.78-3-18.81-9-5.03-6-7.55-13.5-7.55-22.5,0-10.59,4.23-23.82,12.69-39.7l40.21-74.65h-24.41l2.39-3.97h23.93l28-51.35c4.79,1.41,9.33,2.12,13.64,2.12s9.1-.7,13.88-2.12l-27.52,51.35h31.35Z"/>
  </g>
  <text class="cls-2" transform="translate(0 695.78) scale(.95 1)"><tspan x="0" y="0">URBAN</tspan></text>
</svg>